<svg width="115" height="40" viewBox="0 0 115 40" fill="none" xmlns="http://www.w3.org/2000/svg">
<g clip-path="url(#clip0_209_2192)">
<path d="M8.28194 2.75845L0 10.9646L2.31592 13.2593L8.28194 7.36035L8.28194 13.8704L0 22.0765L2.31592 24.3712L8.28194 18.4723L8.28194 24.9823L0 33.1884L2.31592 35.4831L8.28194 29.5842L8.28194 39H11.567L11.567 29.2973L17.6841 35.3584L20 33.0637L12.3851 25.5185L11.567 24.7204L11.567 18.1854L17.6841 24.2465L20 21.9518L12.3851 14.4066L11.567 13.596L11.567 7.07351L17.6841 13.1346L20 10.8398L12.3851 3.29472L11.567 2.48408L10.0566 1L8.28194 2.75845Z" fill="#333333"/>
</g>
<path d="M32.8047 14.3047H35.8027C36.3366 14.3047 36.7858 14.1354 37.1504 13.7969C37.515 13.4518 37.6973 13.0547 37.6973 12.6055C37.6973 12.1497 37.515 11.7526 37.1504 11.4141C36.7858 11.069 36.3366 10.8965 35.8027 10.8965H32.8047V14.3047ZM35.9004 17H29.7969V2.99609H39.5039V5.70117H32.8047V8.20117H35.9004C37.2741 8.20117 38.4167 8.63086 39.3281 9.49023C40.2396 10.3496 40.6953 11.388 40.6953 12.6055C40.6953 13.8164 40.2396 14.8516 39.3281 15.7109C38.4167 16.5703 37.2741 17 35.9004 17ZM45.7051 10.252C45.2298 10.7533 44.9922 11.3717 44.9922 12.1074C44.9922 12.8366 45.2298 13.4518 45.7051 13.9531C46.1803 14.4479 46.7435 14.6953 47.3945 14.6953C48.0456 14.6953 48.6087 14.4479 49.084 13.9531C49.5592 13.4518 49.7969 12.8366 49.7969 12.1074C49.7969 11.3717 49.5592 10.7533 49.084 10.252C48.6087 9.75065 48.0456 9.5 47.3945 9.5C46.7435 9.5 46.1803 9.75065 45.7051 10.252ZM51.0371 8.5332C52.0723 9.54883 52.5898 10.737 52.5898 12.0977C52.5898 13.4583 52.0723 14.6497 51.0371 15.6719C50.0085 16.6875 48.7943 17.1953 47.3945 17.1953C45.9948 17.1953 44.7773 16.6875 43.7422 15.6719C42.707 14.6497 42.1895 13.4583 42.1895 12.0977C42.1895 10.737 42.707 9.54883 43.7422 8.5332C44.7773 7.51107 45.9948 7 47.3945 7C48.7943 7 50.0085 7.51107 51.0371 8.5332ZM55.5879 7.19531H63.4883V17H60.793V9.59766H58.1953V10.2031C58.1953 12.0326 58.0391 13.4876 57.7266 14.5684C57.4206 15.6426 57.0234 16.3685 56.5352 16.7461C56.0534 17.1172 55.4382 17.3027 54.6895 17.3027C54.4486 17.3027 54.2109 17.2734 53.9766 17.2148C53.7487 17.1628 53.5794 17.1172 53.4688 17.0781L53.293 17V14.5977C53.4948 14.6628 53.6934 14.6953 53.8887 14.6953C54.2858 14.6953 54.5983 14.5944 54.8262 14.3926C55.054 14.1842 55.2363 13.7253 55.373 13.0156C55.5163 12.2995 55.5879 11.2611 55.5879 9.90039V7.19531ZM68.791 14.8027H70.4902C70.8353 14.8027 71.1217 14.6888 71.3496 14.4609C71.5775 14.2331 71.6914 13.9466 71.6914 13.6016C71.6914 13.2565 71.5775 12.9701 71.3496 12.7422C71.1283 12.5143 70.8418 12.4004 70.4902 12.4004H68.791V14.8027ZM73.3809 11.1406C74.0579 11.7656 74.3965 12.5859 74.3965 13.6016C74.3965 14.6107 74.0579 15.431 73.3809 16.0625C72.7103 16.6875 71.7826 17 70.5977 17H66.0957V7.19531H68.791V10.2031H70.5977C71.7826 10.2031 72.7103 10.5156 73.3809 11.1406ZM76.291 17V7.19531H78.9863V14.5977H81.6914V7.19531H84.3867V14.5977H87.0918V7.19531H89.7871V17H76.291ZM95.1973 10.252C94.722 10.7533 94.4844 11.3717 94.4844 12.1074C94.4844 12.8366 94.722 13.4518 95.1973 13.9531C95.6725 14.4479 96.2357 14.6953 96.8867 14.6953C97.5378 14.6953 98.1009 14.4479 98.5762 13.9531C99.0514 13.4518 99.2891 12.8366 99.2891 12.1074C99.2891 11.3717 99.0514 10.7533 98.5762 10.252C98.1009 9.75065 97.5378 9.5 96.8867 9.5C96.2357 9.5 95.6725 9.75065 95.1973 10.252ZM100.529 8.5332C101.564 9.54883 102.082 10.737 102.082 12.0977C102.082 13.4583 101.564 14.6497 100.529 15.6719C99.5007 16.6875 98.2865 17.1953 96.8867 17.1953C95.487 17.1953 94.2695 16.6875 93.2344 15.6719C92.1992 14.6497 91.6816 13.4583 91.6816 12.0977C91.6816 10.737 92.1992 9.54883 93.2344 8.5332C94.2695 7.51107 95.487 7 96.8867 7C98.2865 7 99.5007 7.51107 100.529 8.5332ZM107.824 3.75781C108.052 3.98568 108.339 4.09961 108.684 4.09961C109.029 4.09961 109.315 3.98568 109.543 3.75781C109.771 3.52995 109.885 3.24349 109.885 2.89844H111.887C111.887 3.7513 111.584 4.46419 110.979 5.03711C110.38 5.61003 109.615 5.89648 108.684 5.89648C107.753 5.89648 106.984 5.61003 106.379 5.03711C105.78 4.46419 105.48 3.7513 105.48 2.89844H107.482C107.482 3.24349 107.596 3.52995 107.824 3.75781ZM111.027 7.19531H113.381V17H110.686V11.502L106.418 17H104.084V7.19531H106.779V12.7031L111.027 7.19531ZM32.8047 22.9961V29.0996L38.3027 22.9961H41.7988L36.6035 28.7969L42.1992 37H38.7031L34.6016 31.0039L32.8047 32.9961V37H29.7969V22.9961H32.8047ZM43.4004 27.1953H48.3027C49.2793 27.1953 50.0736 27.4622 50.6855 27.9961C51.2975 28.5299 51.6035 29.1647 51.6035 29.9004C51.6035 30.3431 51.5026 30.7305 51.3008 31.0625C51.099 31.3945 50.8971 31.6126 50.6953 31.7168L50.4023 31.9023C50.4414 31.9154 50.4967 31.9349 50.5684 31.9609C50.64 31.987 50.7702 32.0618 50.959 32.1855C51.1478 32.3027 51.3105 32.4395 51.4473 32.5957C51.5905 32.7454 51.7174 32.9538 51.8281 33.2207C51.9453 33.4876 52.0039 33.7806 52.0039 34.0996C52.0039 34.9264 51.6849 35.6165 51.0469 36.1699C50.4154 36.7233 49.5658 37 48.498 37H43.4004V27.1953ZM48.3027 32.8008H46.0957V34.8027H48.3027C48.6087 34.8027 48.8496 34.7083 49.0254 34.5195C49.2077 34.3307 49.2988 34.0898 49.2988 33.7969C49.2988 33.5039 49.2077 33.2663 49.0254 33.084C48.8496 32.8952 48.6087 32.8008 48.3027 32.8008ZM48.0977 31.0039C48.6315 31.0039 48.8984 30.737 48.8984 30.2031C48.8984 29.6693 48.6315 29.4023 48.0977 29.4023H46.0957V31.0039H48.0977ZM63.3027 32.9961H56.2031C56.3073 33.5299 56.5905 33.9824 57.0527 34.3535C57.515 34.7181 58.0977 34.9004 58.8008 34.9004C59.3086 34.9004 59.7773 34.8027 60.207 34.6074C60.6432 34.4056 60.9492 34.2038 61.125 34.002L61.4082 33.6992L62.8047 35.4961L62.6289 35.6719C62.5443 35.7565 62.3685 35.8965 62.1016 36.0918C61.8346 36.2871 61.5514 36.4629 61.252 36.6191C60.9525 36.7689 60.5618 36.9023 60.0801 37.0195C59.6048 37.1367 59.1133 37.1953 58.6055 37.1953C57.1667 37.1953 55.9395 36.6973 54.9238 35.7012C53.9082 34.6986 53.4004 33.4974 53.4004 32.0977C53.4004 30.6979 53.9017 29.5 54.9043 28.5039C55.9069 27.5013 57.1081 27 58.5078 27C59.9076 27 61.0729 27.4688 62.0039 28.4062C62.9349 29.3372 63.4004 30.5026 63.4004 31.9023L63.3027 32.9961ZM59.9531 29.8125C59.5625 29.474 59.0807 29.3047 58.5078 29.3047C57.9349 29.3047 57.4466 29.4707 57.043 29.8027C56.6458 30.1348 56.3659 30.5677 56.2031 31.1016H60.7051C60.6009 30.5807 60.3503 30.151 59.9531 29.8125ZM66.3789 35.6719C65.3307 34.6497 64.8066 33.4583 64.8066 32.0977C64.8066 30.737 65.3307 29.5488 66.3789 28.5332C67.4271 27.5111 68.6706 27 70.1094 27C70.6172 27 71.099 27.0716 71.5547 27.2148C72.0169 27.3516 72.3945 27.5176 72.6875 27.7129C72.9805 27.9017 73.2409 28.0938 73.4688 28.2891C73.6966 28.4844 73.8626 28.6536 73.9668 28.7969L74.1133 29.002L72.4141 30.7012C72.362 30.61 72.2741 30.4896 72.1504 30.3398C72.0332 30.1901 71.7728 29.998 71.3691 29.7637C70.972 29.5228 70.5521 29.4023 70.1094 29.4023C69.3997 29.4023 68.7878 29.666 68.2734 30.1934C67.7656 30.7207 67.5117 31.3587 67.5117 32.1074C67.5117 32.8496 67.7689 33.4844 68.2832 34.0117C68.7975 34.5391 69.4062 34.8027 70.1094 34.8027C70.5521 34.8027 70.972 34.6953 71.3691 34.4805C71.7728 34.2656 72.0658 34.0508 72.248 33.8359L72.5117 33.5039L74.1133 35.2031C74.0742 35.2552 74.0189 35.3301 73.9473 35.4277C73.8822 35.5189 73.7259 35.6784 73.4785 35.9062C73.2311 36.1276 72.9642 36.3262 72.6777 36.502C72.3913 36.6712 72.0169 36.8307 71.5547 36.9805C71.099 37.1237 70.6172 37.1953 70.1094 37.1953C68.6706 37.1953 67.4271 36.6875 66.3789 35.6719ZM74.9141 29.8027V27.1953H83.8203V29.8027H80.7148V37H78.0195V29.8027H74.9141Z" fill="#333333"/>
<defs>
<clipPath id="clip0_209_2192">
<rect width="38" height="20" fill="white" transform="matrix(0 -1 1 0 0 39)"/>
</clipPath>
</defs>
</svg>
